#!OML:ASF F:\VICON\USERDATA\INSTALL\rory3\rory3.ASF
:FULLY-SPECIFIED
:DEGREES
32
root -0.875633 18.8332 -11.8401 8.25646 0.24017 3.96586
lowerback 12.564 -4.44531 -5.09342
upperback 0.777612 -6.6289 -0.357686
thorax -5.66307 -3.12594 3.5846
lowerneck -5.10932 4.03898 0.119728
upperneck -11.1181 5.09177 -3.78899
head -2.54635 2.61771 -1.2595
rclavicle 3.6477e-014 7.95139e-015
rhumerus -61.3713 6.50965 -81.3681
rradius 87.7785
rwrist 2.75052
rhand -34.8597 31.0382
rfingers 7.12502
rthumb -8.00934 1.20995
lclavicle 3.6477e-014 7.95139e-015
lhumerus -22.8327 -20.7929 88.8629
lradius 119.102
lwrist 24.7257
lhand -36.5159 4.35395
lfingers 7.12502
lthumb -9.60756 34.1149
rfemur -36.5605 9.43183 11.9288
rtibia 21.0125
rfoot 5.10368 -15.3214
rtoes -9.94891
lfemur 24.3473 -6.33907 -30.6103
ltibia 19.9688
lfoot 29.9922 4.76599
ltoes -12.0944
33
root -0.858736 18.8169 -11.3306 8.17277 -0.113664 4.18053
lowerback 13.2218 -4.28835 -4.78373
upperback 0.439168 -6.44273 -0.561889
thorax -6.46566 -3.00756 3.2557
lowerneck -4.64601 3.99697 0.175085
upperneck -11.2671 5.02201 -3.86775
head -2.67649 2.58817 -1.31058
rclavicle -1.63997e-014 1.19271e-015
rhumerus -61.1271 6.78666 -81.4856
rradius 87.4657
rwrist 2.40869
rhand -34.6221 31.9708
rfingers 7.12502
rthumb -7.77999 2.13397
lclavicle -1.63997e-014 1.19271e-015
lhumerus -24.7593 -21.3322 89.6456
lradius 118.624
lwrist 24.7121
lhand -35.905 3.61024
lfingers 7.12502
lthumb -9.01811 33.3975
rfemur -35.5813 8.30219 12.4303
rtibia 18.8616
rfoot 4.7974 -15.423
rtoes -10.3083
lfemur 22.7951 -6.31793 -31.3012
ltibia 25.3061
lfoot 28.751 4.54377
ltoes -13.458
34
root -0.847894 18.7841 -10.8211 8.05802 -0.365452 4.20913
lowerback 12.5548 -4.16108 -4.7892
upperback 0.951489 -6.20897 -0.464074
thorax -5.55572 -2.93553 3.23247
lowerneck -4.63776 3.94137 -0.00533474
upperneck -11.8279 4.91419 -4.10978
head -2.86968 2.55365 -1.37225
rclavicle 1.47101e-014 1.47101e-014
rhumerus -59.5386 7.19855 -81.24
rradius 87.1611
rwrist 2.02206
rhand -34.5499 32.4506
rfingers 7.12502
rthumb -7.71037 2.61114
lclavicle 1.47101e-014 1.47101e-014
lhumerus -25.1032 -21.5744 90.091
lradius 117.701
lwrist 24.5165
lhand -35.536 2.58409
lfingers 7.12502
lthumb -8.66204 32.3864
rfemur -34.6089 7.18862 13.2498
rtibia 17.3439
rfoot 4.77898 -16.0062
rtoes -9.47807
lfemur 21.1189 -5.50757 -31.3225
ltibia 30.7707
lfoot 29.7991 3.40391
ltoes -16.8972
35
root -0.838543 18.735 -10.3086 7.95216 -0.760758 4.21918
lowerback 12.4297 -4.01102 -4.48044
upperback 1.11308 -5.96222 -0.589199
thorax -5.38059 -2.83175 2.87488
lowerneck -4.83051 3.92673 -0.0302728
upperneck -11.8545 4.8982 -4.08539
head -2.84585 2.54478 -1.35533
rclavicle -3.00165e-014 2.68359e-014
rhumerus -58.5565 7.63077 -81.3472
rradius 86.99
rwrist 1.83858
rhand -34.4486 32.1352
rfingers 7.12502
rthumb -7.61257 2.2922
lclavicle -3.00165e-014 2.68359e-014
lhumerus -25.9892 -21.5862 90.2853
lradius 116.674
lwrist 23.4446
lhand -36.0908 3.90364
lfingers 7.12502
lthumb -9.19741 33.6831
rfemur -33.6751 6.26431 14.1165
rtibia 16.3567
rfoot 5.29961 -16.5875
rtoes -9.35071
lfemur 19.4507 -4.61185 -31.3475
ltibia 36.2663
lfoot 30.8038 2.90861
ltoes -12.1155
36
root -0.825697 18.6768 -9.7986 7.78926 -1.46355 3.89703
lowerback 12.4193 -3.52528 -3.88022
upperback 2.50597 -5.19358 -0.740538
thorax -4.03216 -2.52328 2.20251
lowerneck -10.9168 3.81097 0.421357
upperneck -9.8012 4.79554 -4.23287
head -1.13848 2.39458 -1.27887
rclavicle -8.72665e-014 2.76311e-014
rhumerus -54.7274 7.0228 -81.2016
rradius 86.4895
rwrist 1.59466
rhand -33.9028 31.9421
rfingers 7.12502
rthumb -7.08577 2.08074
lclavicle -8.72665e-014 2.76311e-014
lhumerus -24.0536 -22.2838 89.4517
lradius 115.377
lwrist 23.4791
lhand -35.9154 4.12521
lfingers 7.12502
lthumb -9.02812 33.912
rfemur -32.6684 5.71236 15.3068
rtibia 15.757
rfoot 5.97962 -16.491
rtoes -10.2103
lfemur 17.6709 -3.38644 -31.0982
ltibia 41.9799
lfoot 31.2206 2.65159
ltoes -7.50464
37
root -0.816233 18.5903 -9.2975 7.46801 -2.18814 3.5372
lowerback 13.3656 -3.42549 -3.74212
upperback 0.652752 -5.12626 -0.318659
thorax -6.4925 -2.39528 2.71309
lowerneck -3.61002 3.87773 -0.124538
upperneck -11.6992 4.78672 -4.5673
head -3.00635 2.51771 -1.52519
rclavicle 4.62174e-014 -9.54166e-015
rhumerus -57.3758 9.54071 -81.2539
rradius 86.9694
rwrist 0.168884
rhand -33.0907 32.2541
rfingers 7.12502
rthumb -6.30176 2.36787
lclavicle 4.62174e-014 -9.54166e-015
lhumerus -30.0189 -20.9383 92.201
lradius 114.798
lwrist 23.2456
lhand -36.2765 2.96683
lfingers 7.12502
lthumb -9.3766 32.7383
rfemur -31.5428 5.19334 16.5477
rtibia 15.675
rfoot 6.70912 -15.3787
rtoes -10.9958
lfemur 16.2099 -2.01202 -30.7119
ltibia 47.7522
lfoot 30.3871 2.71492
ltoes -7.31206
38
root -0.80553 18.5024 -8.79546 6.97695 -3.02388 2.49983
lowerback 13.9866 -3.05035 -2.66959
upperback 0.845126 -4.46616 -0.104819
thorax -6.74146 -2.09648 2.25756
lowerneck -3.72693 3.75734 -0.105921
upperneck -11.8391 4.61216 -4.66821
head -3.03498 2.43365 -1.55988
rclavicle 1.3418e-014 4.57205e-015
rhumerus -56.0823 10.2015 -81.0906
rradius 87.3414
rwrist -0.943306
rhand -33.1313 31.6605
rfingers 7.12502
rthumb -6.34096 1.77541
lclavicle 1.3418e-014 4.57205e-015
lhumerus -31.0954 -20.8438 92.7377
lradius 113.554
lwrist 23.6559
lhand -36.4427 2.70967
lfingers 7.12502
lthumb -9.537 32.4738
rfemur -30.1495 4.89337 18.5084
rtibia 16.0475
rfoot 7.52529 -13.4383
rtoes -7.42324
lfemur 14.3998 -0.326679 -29.4206
ltibia 53.6935
lfoot 28.7702 2.06275
ltoes -12.3062
39
root -0.797849 18.3779 -8.30604 6.35775 -4.17765 1.38401
lowerback 14.6195 -2.53048 -1.67901
upperback 1.06646 -3.61696 0.0802748
thorax -6.94992 -1.7068 1.76472
lowerneck -3.82188 3.66197 -0.0408595
upperneck -11.4738 4.50462 -4.6003
head -2.89527 2.37078 -1.53524
rclavicle -1.45361e-014 1.51076e-014
rhumerus -54.7508 10.8305 -80.9697
rradius 87.6446
rwrist -1.52007
rhand -33.858 30.9778
rfingers 7.12502
rthumb -7.04251 1.11498
lclavicle -1.45361e-014 1.51076e-014
lhumerus -32.354 -20.7437 93.2
lradius 112.41
lwrist 24.2198
lhand -36.608 3.7908
lfingers 7.12502
lthumb -9.69644 33.5476
rfemur -28.9345 4.89856 20.549
rtibia 17.402
rfoot 8.77148 -10.6778
rtoes -0.496152
lfemur 13.1224 1.92738 -27.8487
ltibia 59.5325
lfoot 28.0661 1.53837
ltoes -8.97044
40
root -0.790626 18.2705 -7.80139 5.74615 -5.1521 0.388687
lowerback 14.8764 -2.1328 -0.897899
upperback 1.44318 -2.94241 0.364446
thorax -6.73864 -1.40294 1.49229
lowerneck -3.89543 3.66439 -0.306779
upperneck -11.1153 4.54453 -4.37119
head -2.76983 2.39042 -1.40476
rclavicle -1.14301e-015 4.77083e-015
rhumerus -52.9349 11.7833 -80.6569
rradius 87.9737
rwrist -2.27771
rhand -33.4291 30.8585
rfingers 7.12502
rthumb -6.62843 0.982248
lclavicle -1.14301e-015 4.77083e-015
lhumerus -33.5207 -20.0298 93.6347
lradius 111.308
lwrist 24.1536
lhand -36.6546 5.57569
lfingers 7.12502
lthumb -9.74139 35.3304
rfemur -27.6621 4.55821 22.3065
rtibia 19.3885
rfoot 8.26042 -6.2667
rtoes 3.84022
lfemur 11.4877 4.0998 -26.1459
ltibia 65.3607
lfoot 26.6133 0.887801
ltoes -13.2837
41
root -0.783605 18.1636 -7.28743 5.2136 -5.31848 -0.242775
lowerback 15.0159 -2.06095 -0.126917
upperback 1.81793 -2.71208 0.48514
thorax -6.45212 -1.3142 1.13467
lowerneck -3.79238 3.67381 -0.243822
upperneck -11.1822 4.55625 -4.34885
head -2.8098 2.39552 -1.41286
rclavicle 2.6662e-014 1.2921e-015
rhumerus -51.0208 12.7083 -80.4037
rradius 88.4702
rwrist -3.0173
rhand -33.3008 30.858
rfingers 7.12502
rthumb -6.50464 0.977844
lclavicle 2.6662e-014 1.2921e-015
lhumerus -34.5876 -18.9956 93.6555
lradius 110.211
lwrist 23.2514
lhand -36.7462 8.86019
lfingers 7.12502
lthumb -9.8298 38.6107
rfemur -26.768 3.39047 23.8322
rtibia 22.221
rfoot 4.94816 -2.72996
rtoes 5.07647
lfemur 10.2205 5.61874 -24.4629
ltibia 70.8465
lfoot 25.0114 1.20136
ltoes -15.1296
42
root -0.7956 18.0523 -6.79313 4.83874 -6.17823 -0.936208
lowerback 15.4206 -1.70627 0.260375
upperback 2.04785 -2.17005 0.619857
thorax -6.44768 -1.05872 0.958013
lowerneck -3.54289 3.61761 0.00691949
upperneck -11.3802 4.45854 -4.48811
head -2.91605 2.34598 -1.51171
rclavicle 2.78299e-014 2.01766e-014
rhumerus -49.1056 13.6083 -80.1921
rradius 89.1049
rwrist -3.66246
rhand -33.5882 30.6403
rfingers 7.12502
rthumb -6.78202 0.768919
lclavicle 2.78299e-014 2.01766e-014
lhumerus -36.0851 -19.3218 94.4466
lradius 109.522
lwrist 27.2462
lhand -37.4519 4.86515
lfingers 7.12502
lthumb -10.5106 34.5824
rfemur -26.1414 3.90943 24.9378
rtibia 25.3516
rfoot 0.700409 -2.6955
rtoes 6.54655
lfemur 8.26724 7.76869 -22.5937
ltibia 76.3827
lfoot 25.2271 0.72793
ltoes -11.6533
43
root -0.796633 17.909 -6.32871 4.33933 -7.1229 -1.59272
lowerback 16.3387 -1.34719 0.721611
upperback 2.18331 -1.60278 0.718638
thorax -6.82326 -0.791484 0.706898
lowerneck -3.34414 3.61911 0.112487
upperneck -11.4661 4.45788 -4.47348
head -2.97945 2.34433 -1.53273
rclavicle -2.89729e-014 7.95139e-015
rhumerus -47.1366 14.551 -79.9597
rradius 89.8191
rwrist -4.44482
rhand -33.7979 30.5384
rfingers 7.12502
rthumb -6.98452 0.673679
lclavicle -2.89729e-014 7.95139e-015
lhumerus -36.9632 -18.5604 94.285
lradius 108.465
lwrist 26.6882
lhand -37.4302 8.8938
lfingers 7.12502
lthumb -10.4897 38.6121
rfemur -25.2891 4.87191 25.8024
rtibia 28.7368
rfoot -3.31212 -3.4046
rtoes 7.50767
lfemur 6.83649 9.84841 -20.8004
ltibia 81.6645
lfoot 24.3642 0.804906
ltoes -7.26049
44
root -0.79891 17.7958 -5.86875 3.99656 -8.11828 -1.99775
lowerback 17.2089 -0.964768 0.875435
upperback 2.34156 -1.05819 0.772282
thorax -7.13386 -0.530493 0.572122
lowerneck -3.56536 3.70705 0.35628
upperneck -11.422 4.56676 -4.61862
head -2.913 2.39069 -1.61559
rclavicle 5.39203e-015 6.85807e-015
rhumerus -44.6894 15.4623 -79.6254
rradius 90.4974
rwrist -5.23453
rhand -34.1718 30.228
rfingers 7.12502
rthumb -7.34538 0.375539
lclavicle 5.39203e-015 6.85807e-015
lhumerus -37.9895 -17.8914 94.2934
lradius 107.631
lwrist 27.0444
lhand -37.8381 9.80373
lfingers 7.12502
lthumb -10.8831 39.5017
rfemur -25.184 6.43622 26.1633
rtibia 32.0924
rfoot -6.11463 -4.34039
rtoes 8.32967
lfemur 4.51759 11.9547 -19.3329
ltibia 86.9799
lfoot 23.5889 0.03452
ltoes -8.0674
45
root -0.801486 17.6871 -5.41514 3.81348 -8.74449 -2.52034
lowerback 18.079 -0.751413 1.15205
upperback 2.41817 -0.69994 0.930682
thorax -7.52831 -0.363163 0.514085
lowerneck -3.74002 3.80238 0.527622
upperneck -11.4426 4.67812 -4.8136
head -2.87737 2.44353 -1.70516
rclavicle -3.11098e-014 -3.97569e-016
rhumerus -42.0673 16.4425 -79.2006
rradius 91.0865
rwrist -5.87356
rhand -34.3871 29.9487
rfingers 7.12502
rthumb -7.55319 0.103547
lclavicle -3.11098e-014 -3.97569e-016
lhumerus -39.6322 -16.5912 94.5066
lradius 107.077
lwrist 26.873
lhand -37.3926 9.79445
lfingers 7.12502
lthumb -10.4534 39.5146
rfemur -24.9691 7.44401 26.7663
rtibia 35.2943
rfoot -8.291 -5.58192
rtoes 12.0943
lfemur 2.60604 13.5228 -17.7165
ltibia 91.7982
lfoot 22.1998 0.0476321
ltoes -3.39865
46
root -0.803598 17.5651 -4.96128 3.61435 -9.17267 -3.12746
lowerback 18.8102 -0.628603 1.55388
upperback 2.56046 -0.431363 1.11754
thorax -7.77355 -0.243562 0.428724
lowerneck -3.74535 3.86816 0.609997
upperneck -11.7514 4.74274 -4.96681
head -2.97495 2.48018 -1.77865
rclavicle -5.2181e-015 -9.98893e-015
rhumerus -39.0637 17.3224 -78.7141
rradius 91.4405
rwrist -6.46276
rhand -34.7656 30.3686
rfingers 7.12502
rthumb -7.91855 0.536868
lclavicle -5.2181e-015 -9.98893e-015
lhumerus -41.1912 -15.1611 94.5637
lradius 106.574
lwrist 26.2788
lhand -36.8912 10.0828
lfingers 7.12502
lthumb -9.96966 39.8267
rfemur -24.3741 7.85085 27.5812
rtibia 38.0561
rfoot -10.0908 -6.12057
rtoes 16.4129
lfemur -0.114794 14.8202 -16.0381
ltibia 96.7016
lfoot 21.2094 -0.871546
ltoes 0.452255
